<?xml version="1.0" encoding="UTF-8"?>
<svg id="Layer_2" data-name="Layer 2" xmlns="http://www.w3.org/2000/svg" viewBox="0 0 1012.48 265.29">
  <defs>
    <style>
      .cls-1 {
        fill: rgba(239, 67, 35, .8);
      }

      .cls-2 {
        fill: #ef4323;
      }
    </style>
  </defs>
  <g id="Layer_1-2" data-name="Layer 1">
    <g>
      <path class="cls-2" d="M568.72,142.86c-1.4,0-2.7-.36-3.89-1.07-1.17-.71-2.12-1.66-2.84-2.84-.71-1.2-1.06-2.51-1.06-3.93l.04-12.39c0-1.45.35-2.76,1.06-3.91.7-1.17,1.64-2.11,2.82-2.81,1.19-.71,2.48-1.07,3.87-1.07s2.74.35,3.89,1.05c1.16.7,2.09,1.64,2.78,2.83.71,1.17,1.06,2.48,1.06,3.91l.04,12.39c0,1.43-.35,2.73-1.04,3.91-.71,1.2-1.65,2.15-2.82,2.86-1.17.71-2.48,1.07-3.91,1.07M568.72,138.14c.8,0,1.5-.32,2.09-.95.59-.65.89-1.37.89-2.18l-.04-12.39c0-.87-.28-1.6-.83-2.2s-1.26-.9-2.11-.9-1.51.29-2.09.88c-.58.59-.87,1.32-.87,2.21v12.39c0,.85.29,1.59.87,2.21.58.61,1.28.92,2.09.92"/>
      <path class="cls-2" d="M584.13,142.48h-4.45c-.13,0-.19-.06-.19-.19l.08-26.86c0-.1.05-.15.16-.15h12.68c.13,0,.19.05.19.15v4.41c0,.1-.05.15-.15.15h-8.12v6.07h8.12c.1,0,.15.06.15.19l.04,4.43c0,.1-.06.15-.19.15h-8.12v11.46c0,.13-.06.19-.19.19"/>
      <path class="cls-2" d="M190.25,202.25c0,9.62-7.94,17.42-17.74,17.42s-17.74-7.8-17.74-17.42,7.94-17.42,17.74-17.42,17.74,7.8,17.74,17.42"/>
      <path class="cls-2" d="M200.06,202.25c0,9.62-7.94,17.42-17.74,17.42s-17.74-7.8-17.74-17.42,7.94-17.42,17.74-17.42,17.74,7.8,17.74,17.42"/>
      <path class="cls-2" d="M209.88,202.25c0,9.62-7.77,17.42-17.36,17.42s-17.36-7.8-17.36-17.42,7.77-17.42,17.36-17.42,17.36,7.8,17.36,17.42"/>
      <path class="cls-2" d="M190.25,202.25c0,9.62-7.94,17.42-17.74,17.42s-17.74-7.8-17.74-17.42,7.94-17.42,17.74-17.42,17.74,7.8,17.74,17.42"/>
      <path class="cls-1" d="M200.06,202.25c0,9.62-7.94,17.42-17.74,17.42s-17.74-7.8-17.74-17.42,7.94-17.42,17.74-17.42,17.74,7.8,17.74,17.42"/>
      <path class="cls-2" d="M209.88,202.25c0,9.62-7.77,17.42-17.36,17.42s-17.36-7.8-17.36-17.42,7.77-17.42,17.36-17.42,17.36,7.8,17.36,17.42"/>
      <path class="cls-2" d="M784.4,203.21c0,9.62-7.94,17.42-17.74,17.42s-17.74-7.8-17.74-17.42,7.94-17.42,17.74-17.42,17.74,7.8,17.74,17.42"/>
      <path class="cls-1" d="M794.21,203.21c0,9.62-7.94,17.42-17.74,17.42s-17.74-7.8-17.74-17.42,7.94-17.42,17.74-17.42,17.74,7.8,17.74,17.42"/>
      <path class="cls-2" d="M804.03,203.21c0,9.62-7.77,17.42-17.36,17.42s-17.36-7.8-17.36-17.42,7.77-17.42,17.36-17.42,17.36,7.8,17.36,17.42"/>
      <path class="cls-2" d="M665.38,265.29h-68.23c-.99,0-1.49-.62-1.49-1.87l.81-262.04c0-.99.57-1.09,1.56-1.09h73.12c14.25,0,27.21,2.64,38.86,9.61,11.4,6.96,20.39,16.23,26.96,27.8,6.57,11.44,9.85,23.88,9.85,37.31,0,10.94-2.48,21.14-7.44,30.59-4.96,9.45-6.67,18.65-13.49,24.49,7.31,7.34,8.84,14.31,12.93,24.01,4.09,9.7,6.14,19.9,6.14,30.59,0,14.8-3.53,28.29-10.6,40.48-7.19,12.19-16.83,32.77-28.85,40.11h-40.13ZM671.14,44.78h-29v60.07h29c8.8,0,15.93-3.11,21.38-9.33,5.46-6.34,8.18-13.18,8.18-20.52,0-8.08-2.91-15.11-8.74-21.08-5.83-6.09-12.77-9.14-20.82-9.14M665.38,151.12h-23.24l-.37,67.53h23.61c9.17,0,17.04-3.36,23.61-10.07,6.57-6.72,9.85-14.68,9.85-23.88s-3.28-17.1-9.85-23.69c-6.57-6.59-14.44-9.89-23.61-9.89"/>
      <path class="cls-2" d="M698.7,263.42L745.93,1.64c.25-1,.87-1.49,1.86-1.49h55.22c.99,0,1.61.5,1.86,1.49l45.36,260.88c.12,1.24-.4,2.38-1.51,2.38l-42.18.38c-1.24,0-1.92-.62-2.05-1.87l-11.71-68.84h-36.63l-11.71,68.84c-.12,1.24-.74,1.87-1.86,1.87h-42.39c-.99,0-1.49-.62-1.49-1.87M773.26,87.32l-17.1,107.27h36.63l-15.62-107.27-2.23-14.18-1.67,14.18Z"/>
      <path class="cls-2" d="M950.21,265.15c-11.26,0-21.64-2.9-31.13-8.71-9.4-5.81-16.94-13.53-22.62-23.17-5.58-9.74-8.36-20.42-8.36-32.03v-14.62c0-1.14.52-1.71,1.55-1.71h35.63c.83,0,1.24.57,1.24,1.71v14.62c0,6.95,2.32,12.96,6.97,18.04,4.65,4.98,10.22,7.46,16.73,7.46s12.24-2.54,16.88-7.62c4.65-5.18,6.97-11.14,6.97-17.88,0-7.77-5.06-14.57-15.18-20.37-1.65-1.04-3.82-2.28-6.5-3.73-2.58-1.56-5.68-3.32-9.3-5.29-3.61-1.97-7.12-3.89-10.53-5.75-3.29-1.9-6.59-3.77-9.91-5.6-11.56-6.84-20.19-15.39-25.87-25.66-5.58-10.37-8.36-21.98-8.36-34.83,0-11.82,2.89-22.5,8.67-32.03,5.78-9.43,13.32-16.9,22.62-22.39,9.4-5.6,19.57-8.4,30.51-8.4,11.25,0,21.58,2.8,30.98,8.4,9.4,5.7,16.88,13.27,22.46,22.7,5.68,9.43,8.52,20.01,8.52,31.72v26.12c0,.83-.41,1.24-1.24,1.24h-35.63c-.83,0-1.24-.41-1.24-1.24l-.31-26.12c0-7.46-2.32-13.53-6.97-18.19-4.65-4.67-10.17-7-16.57-7s-12.08,2.49-16.73,7.46c-4.65,4.98-6.97,10.89-6.97,17.73s1.45,12.75,4.34,17.42c2.99,4.66,8.42,9.12,16.26,13.37.83.41,2.74,1.45,5.73,3.11,2.99,1.66,6.3,3.52,9.91,5.6,3.72,1.97,7.07,3.78,10.07,5.44,2.99,1.56,4.8,2.49,5.42,2.8,10.53,5.91,18.85,13.17,24.94,21.77,6.2,8.6,9.3,19.18,9.3,31.72s-2.79,23.01-8.37,32.66c-5.68,9.64-13.22,17.26-22.61,22.86-9.4,5.6-19.83,8.4-31.29,8.4"/>
      <path class="cls-2" d="M891.4,265.09h-42.95c-1.12,0-1.67-.62-1.67-1.87V46.23h-49.46c-1.24,0-1.86-.62-1.86-1.87l.37-42.72c0-1,.5-1.49,1.49-1.49h212.27c1.36,0,2.05.5,2.05,1.49v42.72c0,1.24-.49,1.87-1.49,1.87h-117.63l.37,217c0,1.24-.5,1.87-1.49,1.87"/>
      <path class="cls-2" d="M519.12,265.11h-122.59c-.99,0-1.48-.62-1.48-1.86l.37-261.39C395.42.62,396.03,0,397.27,0h42.22c1.23,0,1.85.62,1.85,1.86l-.37,216.37h78.15c1.23,0,1.85.62,1.85,1.86v43.16c0,1.24-.62,1.86-1.85,1.86"/>
      <path class="cls-2" d="M69.44,265.11H1.48c-.99,0-1.48-.62-1.48-1.86L.74,1.49C.74.5,1.23,0,2.22,0h72.96C89.38,0,102.28,3.47,113.88,10.42c11.36,6.95,20.31,16.19,26.85,27.72,6.54,11.41,9.81,23.81,9.81,37.21,0,10.91-2.47,21.08-7.41,30.51-4.94,9.43-6.5,17.54-13.29,23.37,7.28,7.32,8.66,15.33,12.74,25.01,4.07,9.67,6.11,19.84,6.11,30.51,0,14.76-3.52,28.22-10.56,40.37-7.16,12.16-14.44,32.68-26.41,40h-42.29ZM75.18,45.21h-28.89v59.91h28.89c8.77,0,15.86-3.1,21.3-9.3,5.43-6.33,8.15-13.15,8.15-20.46,0-8.06-2.9-15.07-8.7-21.02-5.8-6.08-12.72-9.12-20.74-9.12M69.44,151.25h-23.15l-.37,67.35h23.52c9.14,0,16.97-3.35,23.52-10.05,6.54-6.7,9.81-14.64,9.81-23.81s-3.27-17.05-9.81-23.63c-6.54-6.57-14.38-9.86-23.52-9.86"/>
      <path class="cls-2" d="M102.63,263.25L149.67,1.49C149.92.5,150.53,0,151.52,0h55C207.51,0,208.12.5,208.37,1.49l45.18,261.76c.12,1.24-.37,1.86-1.48,1.86h-42.03c-1.23,0-1.91-.62-2.04-1.86l-11.67-68.65h-36.48l-11.67,68.65c-.12,1.24-.74,1.86-1.85,1.86h-42.22c-.99,0-1.48-.62-1.48-1.86M176.89,87.63l-17.04,106.98h36.48l-15.55-106.98-2.22-14.14-1.67,14.14Z"/>
      <path class="cls-2" d="M366.58,265.11h-42.78c-1.11,0-1.67-.62-1.67-1.86V45.95h-49.26c-1.23,0-1.85-.62-1.85-1.86l.37-42.6C271.39.5,271.89,0,272.88,0h144.07c1.36,0,2.04.5,2.04,1.49v42.6c0,1.24-.49,1.86-1.48,1.86h-49.81l.37,217.3c0,1.24-.49,1.86-1.48,1.86"/>
      <path class="cls-2" d="M294.56,265.11h-42.78c-1.11,0-1.67-.62-1.67-1.86V45.95h-49.26c-1.23,0-1.85-.62-1.85-1.86l.37-42.6c0-.99.49-1.49,1.48-1.49h144.07c1.36,0,2.04.5,2.04,1.49v42.6c0,1.24-.49,1.86-1.48,1.86h-49.81l.37,217.3c0,1.24-.49,1.86-1.48,1.86"/>
      <path class="cls-2" d="M575.53,264.64l-96.85.47c-.99,0-1.55-.1-1.55-1.34l.37-261.76c0-.99.49-1.49,1.48-1.49h96.18c.99,0,1.48.62,1.48,1.86v41.62c0,.99-.49,1.49-1.48,1.49l-52.11.99v59.53h32.22c.99,0,1.48.5,1.48,1.49l.37,43.16c0,.99-.49,1.49-1.48,1.49h-32.59v66.6l52.48-.99c.99,0,1.48.62,1.48,1.86v43.54c0,.99-.49,1.49-1.48,1.49"/>
    </g>
  </g>
</svg>